<svg xmlns="http://www.w3.org/2000/svg" viewBox="0 0 60 46">
<path fill="#31c7ff" d="M51.6,13.7c-2.2-2.3-5.2-3.5-8.8-3.5c-3.7,0-6.6,1.2-8.8,3.5c-0.4,0.4-0.7,0.8-1,1.2c-0.6-3.5-2-6.4-4.3-8.8
	c-3-3.2-7-4.8-12-4.8c-5,0-9,1.6-12,4.8c-3,3.2-4.5,7.2-4.6,12.2c0.1,5,1.6,9.1,4.6,12.2c3,3.2,7,4.8,12,4.8c3,0,5.7-0.6,8-1.8
	c0,3.3,7.2,7,8.1,6.1c0.8-0.8-2-7.2-4.9-8.3c0.3-0.3,0.6-0.5,0.8-0.8c1-1.1,1.8-2.2,2.5-3.5c0.5,1.9,1.4,3.5,2.8,4.9
	c2.2,2.3,5.1,3.5,8.8,3.5c3.7,0,6.6-1.2,8.8-3.5c2.2-2.3,3.3-5.4,3.3-9.1C54.9,19,53.8,16,51.6,13.7z M25.8,27.6
	c-2.2,2.5-5.2,3.7-9.1,3.7c-3.9,0-6.9-1.2-9.1-3.7c-2.2-2.4-3.2-5.5-3.2-9.2c0-3.8,1.1-6.8,3.2-9.2c2.2-2.5,5.2-3.7,9.1-3.7
	c3.9,0,6.9,1.2,9.1,3.7c2.1,2.4,3.2,5.5,3.2,9.2C29,22.1,27.9,25.1,25.8,27.6z M48,29.4c-0.8,0.7-1.6,1.2-2.5,1.5
	c-0.9,0.3-1.8,0.5-2.7,0.5c-0.9,0-1.8-0.2-2.8-0.5c-0.9-0.3-1.8-0.8-2.5-1.5c-0.7-0.7-1.4-1.6-1.8-2.7c-0.5-1.1-0.7-2.4-0.7-4
	s0.2-2.9,0.7-4c1.3-3.1,3.7-4.6,7.1-4.6c2.1,0,3.8,0.6,5.3,1.9c1.7,1.6,2.6,3.8,2.6,6.6C50.6,25.7,49.7,27.9,48,29.4z"/>
</svg>
